<svg width="474" height="761" viewBox="0 0 474 761" fill="none" xmlns="http://www.w3.org/2000/svg">
<path d="M172.71 2C172.71 2 19.5798 34.4304 13.273 121.074C6.96621 207.717 244.871 138.26 149.631 319.074C54.3899 499.887 -31.6866 504.363 13.273 617.074C58.2326 729.785 178.96 788.953 319.21 744.2C459.461 699.446 472.663 412.074 472.663 412.074" stroke="#D0D5F6" stroke-width="2"/>
<path d="M214.7 2C214.7 2 94.575 30.4814 89.6276 106.575C84.6802 182.668 271.307 121.669 196.594 280.465C121.882 439.262 54.3587 443.192 89.6276 542.179C124.897 641.165 219.602 693.129 329.623 653.825C439.643 614.521 450 362.141 450 362.141" stroke="#D0D5F6" stroke-width="2"/>
<path d="M250.935 0C250.935 0 160.03 24.841 156.286 91.2081C152.542 157.575 293.773 104.373 237.234 242.872C180.695 381.371 129.596 384.799 156.286 471.133C182.976 557.468 254.645 602.789 337.904 568.509C421.163 534.229 429 314.108 429 314.108" stroke="#D0D5F6" stroke-width="2"/>
</svg>
